<?xml version="1.0" encoding="utf-8"?>
<!-- Generator: Adobe Illustrator 22.1.0, SVG Export Plug-In . SVG Version: 6.00 Build 0)  -->
<svg version="1.1" id="Слой_1" xmlns="http://www.w3.org/2000/svg" xmlns:xlink="http://www.w3.org/1999/xlink" x="0px" y="0px"
	 viewBox="0 0 32 32" enable-background="new 0 0 32 32" xml:space="preserve">
<g>
	<path fill="#BF1C0A" d="M24.59,10.56h-1.21v2.93h1.21c0.64,0,1.18-0.54,1.18-1.21v-0.51C25.77,11.1,25.22,10.56,24.59,10.56
		L24.59,10.56z"/>
	<path fill="#BF1C0A" d="M7.44,10.56h1.18v2.93H7.44c-0.67,0-1.21-0.54-1.21-1.21v-0.51C6.23,11.1,6.78,10.56,7.44,10.56L7.44,10.56
		z"/>
	<path fill="#BF1C0A" d="M23.79,5.85v21.92c0,3.4-4.61,4.23-7.79,4.23s-7.79-0.83-7.79-4.23V5.85c0-2.13,0.95-3.79,2.32-4.9
		C11.36,0.32,12.25,0,13.3,0h5.41c1.05,0,1.94,0.32,2.77,0.95C22.84,2.07,23.79,3.72,23.79,5.85L23.79,5.85z"/>
	<path fill="#FC5F4E" d="M11.13,0.54C11.8,0.19,12.5,0,13.3,0h5.41c0.8,0,1.5,0.19,2.16,0.54L23,10.66H9.07L11.13,0.54z"/>
	<path fill="#323031" d="M12.37,0.1C12.66,0.03,12.98,0,13.3,0h5.41c0.35,0,0.67,0.03,0.99,0.1c0,0.7-0.54,1.24-1.24,1.24h-4.83
		C12.95,1.34,12.37,0.76,12.37,0.1L12.37,0.1z"/>
	<path fill="#FF8678" d="M20.87,0.54c-0.32-0.16-0.64-0.29-0.99-0.38l2.35,11.32L23,10.66L20.87,0.54z"/>
	<path fill="#FF8678" d="M11.13,0.54c0.32-0.16,0.64-0.29,0.99-0.38L9.83,11.48l-0.76-0.83L11.13,0.54z"/>
	<path fill="#FFFFFF" d="M11.23,3.91c0.73-0.51,1.27-1.24,1.18-1.65s-0.76-0.35-1.5,0.13C10.18,2.9,9.64,3.63,9.73,4.08
		C9.83,4.49,10.5,4.42,11.23,3.91L11.23,3.91z"/>
	<path fill="#FFFFFF" d="M20.77,3.91c-0.73-0.51-1.24-1.24-1.18-1.65c0.1-0.41,0.76-0.35,1.5,0.13c0.76,0.51,1.27,1.24,1.18,1.69
		C22.2,4.49,21.5,4.42,20.77,3.91L20.77,3.91z"/>
	<path fill="#F5402C" d="M22.58,30.28C21.03,31.62,18.19,32,16,32c-2.07,0-4.74-0.35-6.36-1.56l-0.19-3.28h13.33L22.58,30.28z"/>
	<polygon fill="#FC5F4E" points="9.67,10.08 9.07,10.66 9.45,27.17 10.02,27.51 21.95,27.51 22.68,27.13 23,10.66 22.36,10.08 	"/>
	<rect x="10.75" y="14.28" fill="#FFD9CF" width="10.5" height="9.1"/>
	<path fill="#323031" d="M22.36,10.08l-1.11,5.22c-3.63-1.11-6.87-1.11-10.5-0.03l-1.08-5.18c1.3-1.84,3.91-2.83,6.33-2.83
		C18.29,7.25,20.96,8.17,22.36,10.08L22.36,10.08z"/>
	<path fill="#959595" d="M21.15,10.37c-1.24-1.34-3.37-2-5.15-2c-0.03,0-0.03,0-0.06,0c-1.88,1.3-3.28,3.21-3.88,5.41
		c2.83-0.64,5.5-0.57,8.33,0.13L21.15,10.37z"/>
	<path fill="#323031" d="M10.02,27.51c3.12,2.19,8.75,2.19,11.93,0l-0.7-5.06c-3.47,0.8-7.06,0.8-10.5,0L10.02,27.51z"/>
	<path fill="#959595" d="M15.14,28.02c1.84,0.13,3.94-0.19,5.6-1.08l-0.45-3.15c-2.45,0.45-4.93,0.48-7.38,0.19
		C13.55,25.38,14.28,26.75,15.14,28.02L15.14,28.02z"/>
	<path fill="#FFFFFF" d="M11.23,29.17c0.73,0.32,1.27,0.86,1.18,1.15c-0.1,0.29-0.76,0.22-1.5-0.13c-0.73-0.32-1.27-0.86-1.18-1.15
		C9.83,28.76,10.5,28.82,11.23,29.17L11.23,29.17z"/>
	<path fill="#FFFFFF" d="M20.77,29.17c-0.73,0.32-1.24,0.86-1.18,1.15c0.1,0.29,0.76,0.22,1.5-0.13c0.76-0.32,1.27-0.86,1.18-1.15
		C22.2,28.76,21.5,28.82,20.77,29.17L20.77,29.17z"/>
	<polygon fill="#323031" points="23,10.66 21.95,15.68 21.92,22.33 22.68,27.13 22.78,27.04 	"/>
	<polygon fill="#323031" points="9.07,10.66 10.15,15.68 10.18,22.33 9.45,27.17 9.35,27.1 	"/>
	<rect x="21.63" y="17.91" fill="#FC5F4E" width="2.16" height="1.4"/>
	<rect x="8.21" y="17.91" fill="#FC5F4E" width="2.26" height="1.4"/>
</g>
</svg>
